<svg id="Capa_1" enable-background="new 0 0 512 512" height="512" viewBox="0 0 512 512" width="512" xmlns="http://www.w3.org/2000/svg"><g><path d="m255.979 144.546-74.086 84.615-103.368 44.312 57.58 96.607 10.201 112.002 109.672-24.909 109.673 24.909 10.201-112.002 57.58-96.607-103.368-44.313zm90.694 216.054-7.718 84.738-82.976-18.845-82.975 18.845-7.719-84.738-43.563-73.092 78.206-33.525 56.051-64.018 56.052 64.018 78.206 33.525z"/><path d="m152.735 209.469 5.427-59.579 30.629-51.391-54.986-23.571-39.41-45.011-39.41 45.011-54.985 23.571 30.628 51.391 5.427 59.579 58.34-13.25zm-92.927-69.06-16.613-27.874 29.825-12.784 21.375-24.414 21.375 24.414 29.824 12.785-16.613 27.874-2.943 32.315-31.643-7.186-31.643 7.186z"/><path d="m457.015 74.929-39.41-45.011-39.41 45.011-54.986 23.571 30.629 51.391 5.427 59.579 58.34-13.25 58.34 13.25 5.427-59.579 30.628-51.392zm-4.823 65.48-2.944 32.315-31.643-7.186-31.643 7.186-2.943-32.315-16.613-27.874 29.824-12.785 21.375-24.414 21.375 24.414 29.824 12.785z"/><path d="m235.779 348.762-24.754-24.754-21.156 21.156 45.91 45.91 88.305-88.305-21.157-21.157z"/></g></svg>